<mxfile host="app.diagrams.net" agent="Mozilla/5.0 (X11; Ubuntu; Linux x86_64; rv:131.0) Gecko/20100101 Firefox/131.0" version="24.8.3">
  <diagram name="Page-1" id="-H_mtQnk-PTXWXPvYvuk">
    <mxGraphModel dx="1195" dy="736" grid="1" gridSize="10" guides="1" tooltips="1" connect="1" arrows="1" fold="1" page="1" pageScale="1" pageWidth="1169" pageHeight="827" math="0" shadow="0">
      <root>
        <mxCell id="0" />
        <mxCell id="1" parent="0" />
        <mxCell id="PALh2jBZQSpQOgBiLoI5-55" style="edgeStyle=orthogonalEdgeStyle;rounded=0;orthogonalLoop=1;jettySize=auto;html=1;exitX=0.5;exitY=1;exitDx=0;exitDy=0;entryX=0.5;entryY=0;entryDx=0;entryDy=0;" edge="1" parent="1" source="zA23MoTUsTF4_91t8viU-3" target="PALh2jBZQSpQOgBiLoI5-46">
          <mxGeometry relative="1" as="geometry" />
        </mxCell>
        <mxCell id="PALh2jBZQSpQOgBiLoI5-57" style="edgeStyle=orthogonalEdgeStyle;rounded=0;orthogonalLoop=1;jettySize=auto;html=1;exitX=1;exitY=0.5;exitDx=0;exitDy=0;entryX=1;entryY=0.5;entryDx=0;entryDy=0;" edge="1" parent="1" source="zA23MoTUsTF4_91t8viU-3" target="PALh2jBZQSpQOgBiLoI5-6">
          <mxGeometry relative="1" as="geometry" />
        </mxCell>
        <mxCell id="PALh2jBZQSpQOgBiLoI5-75" style="edgeStyle=orthogonalEdgeStyle;rounded=0;orthogonalLoop=1;jettySize=auto;html=1;exitX=0.75;exitY=0;exitDx=0;exitDy=0;entryX=0.5;entryY=1;entryDx=0;entryDy=0;" edge="1" parent="1" source="zA23MoTUsTF4_91t8viU-3" target="PALh2jBZQSpQOgBiLoI5-71">
          <mxGeometry relative="1" as="geometry">
            <Array as="points">
              <mxPoint x="376" y="274" />
            </Array>
          </mxGeometry>
        </mxCell>
        <mxCell id="zA23MoTUsTF4_91t8viU-3" value="pymongo-api" style="rounded=1;whiteSpace=wrap;html=1;" parent="1" vertex="1">
          <mxGeometry x="296" y="274" width="120" height="60" as="geometry" />
        </mxCell>
        <mxCell id="PALh2jBZQSpQOgBiLoI5-8" style="edgeStyle=orthogonalEdgeStyle;rounded=0;orthogonalLoop=1;jettySize=auto;html=1;entryX=0;entryY=0.5;entryDx=0;entryDy=0;" edge="1" parent="1" source="PALh2jBZQSpQOgBiLoI5-6" target="PALh2jBZQSpQOgBiLoI5-7">
          <mxGeometry relative="1" as="geometry">
            <Array as="points">
              <mxPoint x="356" y="568" />
              <mxPoint x="496" y="568" />
              <mxPoint x="496" y="500" />
            </Array>
          </mxGeometry>
        </mxCell>
        <mxCell id="PALh2jBZQSpQOgBiLoI5-56" style="edgeStyle=orthogonalEdgeStyle;rounded=0;orthogonalLoop=1;jettySize=auto;html=1;exitX=0.5;exitY=0;exitDx=0;exitDy=0;entryX=0.5;entryY=1;entryDx=0;entryDy=0;" edge="1" parent="1" source="PALh2jBZQSpQOgBiLoI5-6" target="PALh2jBZQSpQOgBiLoI5-46">
          <mxGeometry relative="1" as="geometry" />
        </mxCell>
        <mxCell id="PALh2jBZQSpQOgBiLoI5-58" style="edgeStyle=orthogonalEdgeStyle;rounded=0;orthogonalLoop=1;jettySize=auto;html=1;entryX=0;entryY=0.5;entryDx=0;entryDy=0;" edge="1" parent="1" source="PALh2jBZQSpQOgBiLoI5-6" target="PALh2jBZQSpQOgBiLoI5-52">
          <mxGeometry relative="1" as="geometry">
            <Array as="points">
              <mxPoint x="356" y="568" />
              <mxPoint x="496" y="568" />
              <mxPoint x="496" y="618" />
            </Array>
          </mxGeometry>
        </mxCell>
        <mxCell id="PALh2jBZQSpQOgBiLoI5-59" style="edgeStyle=orthogonalEdgeStyle;rounded=0;orthogonalLoop=1;jettySize=auto;html=1;entryX=0;entryY=0.5;entryDx=0;entryDy=0;" edge="1" parent="1" source="PALh2jBZQSpQOgBiLoI5-6" target="zA23MoTUsTF4_91t8viU-3">
          <mxGeometry relative="1" as="geometry">
            <Array as="points">
              <mxPoint x="276" y="496" />
              <mxPoint x="276" y="304" />
            </Array>
          </mxGeometry>
        </mxCell>
        <mxCell id="PALh2jBZQSpQOgBiLoI5-6" value="&lt;div&gt;Driver&lt;/div&gt;" style="rounded=1;whiteSpace=wrap;html=1;" vertex="1" parent="1">
          <mxGeometry x="296" y="466" width="120" height="60" as="geometry" />
        </mxCell>
        <mxCell id="PALh2jBZQSpQOgBiLoI5-7" value="&lt;div&gt;Router&lt;/div&gt;" style="rounded=1;whiteSpace=wrap;html=1;" vertex="1" parent="1">
          <mxGeometry x="556" y="470" width="120" height="60" as="geometry" />
        </mxCell>
        <mxCell id="PALh2jBZQSpQOgBiLoI5-16" style="edgeStyle=orthogonalEdgeStyle;rounded=0;orthogonalLoop=1;jettySize=auto;html=1;entryX=0.5;entryY=0;entryDx=0;entryDy=0;" edge="1" parent="1" source="PALh2jBZQSpQOgBiLoI5-13" target="PALh2jBZQSpQOgBiLoI5-7">
          <mxGeometry relative="1" as="geometry" />
        </mxCell>
        <mxCell id="PALh2jBZQSpQOgBiLoI5-13" value="Config Server" style="rounded=1;whiteSpace=wrap;html=1;" vertex="1" parent="1">
          <mxGeometry x="556" y="274" width="120" height="60" as="geometry" />
        </mxCell>
        <mxCell id="PALh2jBZQSpQOgBiLoI5-34" style="edgeStyle=orthogonalEdgeStyle;rounded=0;orthogonalLoop=1;jettySize=auto;html=1;entryX=1;entryY=0.5;entryDx=0;entryDy=0;" edge="1" parent="1" source="PALh2jBZQSpQOgBiLoI5-17" target="PALh2jBZQSpQOgBiLoI5-13">
          <mxGeometry relative="1" as="geometry">
            <Array as="points">
              <mxPoint x="821" y="544" />
              <mxPoint x="1084" y="544" />
              <mxPoint x="1084" y="304" />
            </Array>
          </mxGeometry>
        </mxCell>
        <mxCell id="PALh2jBZQSpQOgBiLoI5-17" value="&lt;div&gt;Shard 1&lt;/div&gt;&lt;div&gt;Primary&lt;br&gt;&lt;/div&gt;" style="shape=cylinder3;whiteSpace=wrap;html=1;boundedLbl=1;backgroundOutline=1;size=15;" vertex="1" parent="1">
          <mxGeometry x="791" y="450" width="60" height="80" as="geometry" />
        </mxCell>
        <mxCell id="PALh2jBZQSpQOgBiLoI5-37" style="edgeStyle=orthogonalEdgeStyle;rounded=0;orthogonalLoop=1;jettySize=auto;html=1;entryX=1;entryY=0.5;entryDx=0;entryDy=0;" edge="1" parent="1" source="PALh2jBZQSpQOgBiLoI5-18" target="PALh2jBZQSpQOgBiLoI5-13">
          <mxGeometry relative="1" as="geometry">
            <Array as="points">
              <mxPoint x="821" y="574" />
              <mxPoint x="1084" y="574" />
              <mxPoint x="1084" y="304" />
            </Array>
          </mxGeometry>
        </mxCell>
        <mxCell id="PALh2jBZQSpQOgBiLoI5-18" value="&lt;div&gt;Shard 2&lt;/div&gt;&lt;div&gt;Primary&lt;/div&gt;" style="shape=cylinder3;whiteSpace=wrap;html=1;boundedLbl=1;backgroundOutline=1;size=15;" vertex="1" parent="1">
          <mxGeometry x="791" y="590" width="60" height="80" as="geometry" />
        </mxCell>
        <mxCell id="PALh2jBZQSpQOgBiLoI5-35" style="edgeStyle=orthogonalEdgeStyle;rounded=0;orthogonalLoop=1;jettySize=auto;html=1;entryX=1;entryY=0.5;entryDx=0;entryDy=0;" edge="1" parent="1" source="PALh2jBZQSpQOgBiLoI5-23" target="PALh2jBZQSpQOgBiLoI5-13">
          <mxGeometry relative="1" as="geometry">
            <Array as="points">
              <mxPoint x="894" y="544" />
              <mxPoint x="1084" y="544" />
              <mxPoint x="1084" y="304" />
            </Array>
          </mxGeometry>
        </mxCell>
        <mxCell id="PALh2jBZQSpQOgBiLoI5-23" value="&lt;div&gt;Shard 1&lt;/div&gt;&lt;div&gt;Secondary&lt;br&gt;&lt;/div&gt;" style="shape=cylinder3;whiteSpace=wrap;html=1;boundedLbl=1;backgroundOutline=1;size=15;" vertex="1" parent="1">
          <mxGeometry x="864" y="450" width="60" height="80" as="geometry" />
        </mxCell>
        <mxCell id="PALh2jBZQSpQOgBiLoI5-36" style="edgeStyle=orthogonalEdgeStyle;rounded=0;orthogonalLoop=1;jettySize=auto;html=1;entryX=1;entryY=0.5;entryDx=0;entryDy=0;" edge="1" parent="1" source="PALh2jBZQSpQOgBiLoI5-24" target="PALh2jBZQSpQOgBiLoI5-13">
          <mxGeometry relative="1" as="geometry">
            <Array as="points">
              <mxPoint x="964" y="544" />
              <mxPoint x="1084" y="544" />
              <mxPoint x="1084" y="304" />
            </Array>
          </mxGeometry>
        </mxCell>
        <mxCell id="PALh2jBZQSpQOgBiLoI5-24" value="&lt;div&gt;Shard 1&lt;/div&gt;&lt;div&gt;Secondary&lt;br&gt;&lt;/div&gt;" style="shape=cylinder3;whiteSpace=wrap;html=1;boundedLbl=1;backgroundOutline=1;size=15;" vertex="1" parent="1">
          <mxGeometry x="934" y="450" width="60" height="80" as="geometry" />
        </mxCell>
        <mxCell id="PALh2jBZQSpQOgBiLoI5-25" style="edgeStyle=orthogonalEdgeStyle;rounded=0;orthogonalLoop=1;jettySize=auto;html=1;entryX=0.5;entryY=0;entryDx=0;entryDy=0;entryPerimeter=0;" edge="1" parent="1" source="PALh2jBZQSpQOgBiLoI5-7" target="PALh2jBZQSpQOgBiLoI5-23">
          <mxGeometry relative="1" as="geometry">
            <Array as="points">
              <mxPoint x="696" y="500" />
              <mxPoint x="696" y="558" />
              <mxPoint x="734" y="558" />
              <mxPoint x="734" y="430" />
              <mxPoint x="894" y="430" />
            </Array>
          </mxGeometry>
        </mxCell>
        <mxCell id="PALh2jBZQSpQOgBiLoI5-26" style="edgeStyle=orthogonalEdgeStyle;rounded=0;orthogonalLoop=1;jettySize=auto;html=1;entryX=0.5;entryY=0;entryDx=0;entryDy=0;entryPerimeter=0;" edge="1" parent="1" source="PALh2jBZQSpQOgBiLoI5-7" target="PALh2jBZQSpQOgBiLoI5-24">
          <mxGeometry relative="1" as="geometry">
            <Array as="points">
              <mxPoint x="696" y="500" />
              <mxPoint x="696" y="558" />
              <mxPoint x="734" y="558" />
              <mxPoint x="734" y="430" />
              <mxPoint x="964" y="430" />
            </Array>
          </mxGeometry>
        </mxCell>
        <mxCell id="PALh2jBZQSpQOgBiLoI5-38" style="edgeStyle=orthogonalEdgeStyle;rounded=0;orthogonalLoop=1;jettySize=auto;html=1;entryX=1;entryY=0.5;entryDx=0;entryDy=0;" edge="1" parent="1" source="PALh2jBZQSpQOgBiLoI5-27" target="PALh2jBZQSpQOgBiLoI5-13">
          <mxGeometry relative="1" as="geometry">
            <Array as="points">
              <mxPoint x="894" y="574" />
              <mxPoint x="1084" y="574" />
              <mxPoint x="1084" y="304" />
            </Array>
          </mxGeometry>
        </mxCell>
        <mxCell id="PALh2jBZQSpQOgBiLoI5-27" value="&lt;div&gt;Shard 2&lt;/div&gt;Secondary" style="shape=cylinder3;whiteSpace=wrap;html=1;boundedLbl=1;backgroundOutline=1;size=15;" vertex="1" parent="1">
          <mxGeometry x="864" y="590" width="60" height="80" as="geometry" />
        </mxCell>
        <mxCell id="PALh2jBZQSpQOgBiLoI5-39" style="edgeStyle=orthogonalEdgeStyle;rounded=0;orthogonalLoop=1;jettySize=auto;html=1;entryX=1;entryY=0.5;entryDx=0;entryDy=0;" edge="1" parent="1" source="PALh2jBZQSpQOgBiLoI5-28" target="PALh2jBZQSpQOgBiLoI5-13">
          <mxGeometry relative="1" as="geometry">
            <Array as="points">
              <mxPoint x="964" y="574" />
              <mxPoint x="1084" y="574" />
              <mxPoint x="1084" y="304" />
            </Array>
          </mxGeometry>
        </mxCell>
        <mxCell id="PALh2jBZQSpQOgBiLoI5-28" value="&lt;div&gt;Shard 2&lt;/div&gt;Secondary" style="shape=cylinder3;whiteSpace=wrap;html=1;boundedLbl=1;backgroundOutline=1;size=15;" vertex="1" parent="1">
          <mxGeometry x="934" y="590" width="60" height="80" as="geometry" />
        </mxCell>
        <mxCell id="PALh2jBZQSpQOgBiLoI5-29" style="edgeStyle=orthogonalEdgeStyle;rounded=0;orthogonalLoop=1;jettySize=auto;html=1;entryX=0.5;entryY=1;entryDx=0;entryDy=0;entryPerimeter=0;" edge="1" parent="1" source="PALh2jBZQSpQOgBiLoI5-7" target="PALh2jBZQSpQOgBiLoI5-18">
          <mxGeometry relative="1" as="geometry">
            <Array as="points">
              <mxPoint x="696" y="500" />
              <mxPoint x="696" y="558" />
              <mxPoint x="734" y="558" />
              <mxPoint x="734" y="690" />
              <mxPoint x="821" y="690" />
            </Array>
          </mxGeometry>
        </mxCell>
        <mxCell id="PALh2jBZQSpQOgBiLoI5-31" style="edgeStyle=orthogonalEdgeStyle;rounded=0;orthogonalLoop=1;jettySize=auto;html=1;entryX=0.5;entryY=0;entryDx=0;entryDy=0;entryPerimeter=0;" edge="1" parent="1" source="PALh2jBZQSpQOgBiLoI5-7" target="PALh2jBZQSpQOgBiLoI5-17">
          <mxGeometry relative="1" as="geometry">
            <Array as="points">
              <mxPoint x="696" y="500" />
              <mxPoint x="696" y="558" />
              <mxPoint x="734" y="558" />
              <mxPoint x="734" y="430" />
              <mxPoint x="821" y="430" />
            </Array>
          </mxGeometry>
        </mxCell>
        <mxCell id="PALh2jBZQSpQOgBiLoI5-32" style="edgeStyle=orthogonalEdgeStyle;rounded=0;orthogonalLoop=1;jettySize=auto;html=1;entryX=0.5;entryY=1;entryDx=0;entryDy=0;entryPerimeter=0;" edge="1" parent="1" source="PALh2jBZQSpQOgBiLoI5-7" target="PALh2jBZQSpQOgBiLoI5-27">
          <mxGeometry relative="1" as="geometry">
            <Array as="points">
              <mxPoint x="696" y="500" />
              <mxPoint x="696" y="558" />
              <mxPoint x="734" y="558" />
              <mxPoint x="734" y="690" />
              <mxPoint x="894" y="690" />
            </Array>
          </mxGeometry>
        </mxCell>
        <mxCell id="PALh2jBZQSpQOgBiLoI5-33" style="edgeStyle=orthogonalEdgeStyle;rounded=0;orthogonalLoop=1;jettySize=auto;html=1;entryX=0.5;entryY=1;entryDx=0;entryDy=0;entryPerimeter=0;" edge="1" parent="1" source="PALh2jBZQSpQOgBiLoI5-7" target="PALh2jBZQSpQOgBiLoI5-28">
          <mxGeometry relative="1" as="geometry">
            <Array as="points">
              <mxPoint x="696" y="500" />
              <mxPoint x="696" y="558" />
              <mxPoint x="734" y="558" />
              <mxPoint x="734" y="690" />
              <mxPoint x="964" y="690" />
            </Array>
          </mxGeometry>
        </mxCell>
        <mxCell id="PALh2jBZQSpQOgBiLoI5-44" style="edgeStyle=orthogonalEdgeStyle;rounded=0;orthogonalLoop=1;jettySize=auto;html=1;entryX=1;entryY=0.5;entryDx=0;entryDy=0;" edge="1" parent="1" source="PALh2jBZQSpQOgBiLoI5-40" target="PALh2jBZQSpQOgBiLoI5-13">
          <mxGeometry relative="1" as="geometry">
            <Array as="points">
              <mxPoint x="1034" y="544" />
              <mxPoint x="1084" y="544" />
              <mxPoint x="1084" y="304" />
            </Array>
          </mxGeometry>
        </mxCell>
        <mxCell id="PALh2jBZQSpQOgBiLoI5-40" value="&lt;div&gt;Shard 1&lt;/div&gt;&lt;div&gt;Secondary&lt;br&gt;&lt;/div&gt;" style="shape=cylinder3;whiteSpace=wrap;html=1;boundedLbl=1;backgroundOutline=1;size=15;" vertex="1" parent="1">
          <mxGeometry x="1004" y="450" width="60" height="80" as="geometry" />
        </mxCell>
        <mxCell id="PALh2jBZQSpQOgBiLoI5-45" style="edgeStyle=orthogonalEdgeStyle;rounded=0;orthogonalLoop=1;jettySize=auto;html=1;entryX=1;entryY=0.5;entryDx=0;entryDy=0;" edge="1" parent="1" source="PALh2jBZQSpQOgBiLoI5-41" target="PALh2jBZQSpQOgBiLoI5-13">
          <mxGeometry relative="1" as="geometry">
            <Array as="points">
              <mxPoint x="1034" y="574" />
              <mxPoint x="1084" y="574" />
              <mxPoint x="1084" y="304" />
            </Array>
          </mxGeometry>
        </mxCell>
        <mxCell id="PALh2jBZQSpQOgBiLoI5-41" value="&lt;div&gt;Shard 2&lt;/div&gt;Secondary" style="shape=cylinder3;whiteSpace=wrap;html=1;boundedLbl=1;backgroundOutline=1;size=15;" vertex="1" parent="1">
          <mxGeometry x="1004" y="590" width="60" height="80" as="geometry" />
        </mxCell>
        <mxCell id="PALh2jBZQSpQOgBiLoI5-42" style="edgeStyle=orthogonalEdgeStyle;rounded=0;orthogonalLoop=1;jettySize=auto;html=1;entryX=0.5;entryY=1;entryDx=0;entryDy=0;entryPerimeter=0;" edge="1" parent="1" source="PALh2jBZQSpQOgBiLoI5-7" target="PALh2jBZQSpQOgBiLoI5-41">
          <mxGeometry relative="1" as="geometry">
            <Array as="points">
              <mxPoint x="696" y="500" />
              <mxPoint x="696" y="558" />
              <mxPoint x="734" y="558" />
              <mxPoint x="734" y="690" />
              <mxPoint x="1034" y="690" />
            </Array>
          </mxGeometry>
        </mxCell>
        <mxCell id="PALh2jBZQSpQOgBiLoI5-43" style="edgeStyle=orthogonalEdgeStyle;rounded=0;orthogonalLoop=1;jettySize=auto;html=1;entryX=0.5;entryY=0;entryDx=0;entryDy=0;entryPerimeter=0;exitX=1;exitY=0.5;exitDx=0;exitDy=0;" edge="1" parent="1" source="PALh2jBZQSpQOgBiLoI5-7" target="PALh2jBZQSpQOgBiLoI5-40">
          <mxGeometry relative="1" as="geometry">
            <Array as="points">
              <mxPoint x="696" y="500" />
              <mxPoint x="696" y="558" />
              <mxPoint x="734" y="558" />
              <mxPoint x="734" y="430" />
              <mxPoint x="1034" y="430" />
            </Array>
          </mxGeometry>
        </mxCell>
        <mxCell id="PALh2jBZQSpQOgBiLoI5-46" value="Redis" style="rounded=1;whiteSpace=wrap;html=1;" vertex="1" parent="1">
          <mxGeometry x="296" y="374" width="120" height="60" as="geometry" />
        </mxCell>
        <mxCell id="PALh2jBZQSpQOgBiLoI5-52" value="&lt;div&gt;Router&lt;/div&gt;" style="rounded=1;whiteSpace=wrap;html=1;" vertex="1" parent="1">
          <mxGeometry x="556" y="588" width="120" height="60" as="geometry" />
        </mxCell>
        <mxCell id="PALh2jBZQSpQOgBiLoI5-53" style="edgeStyle=orthogonalEdgeStyle;rounded=0;orthogonalLoop=1;jettySize=auto;html=1;entryX=0.5;entryY=0;entryDx=0;entryDy=0;entryPerimeter=0;" edge="1" parent="1" source="PALh2jBZQSpQOgBiLoI5-52" target="PALh2jBZQSpQOgBiLoI5-17">
          <mxGeometry relative="1" as="geometry">
            <Array as="points">
              <mxPoint x="696" y="618" />
              <mxPoint x="696" y="558" />
              <mxPoint x="734" y="558" />
              <mxPoint x="734" y="430" />
              <mxPoint x="821" y="430" />
            </Array>
          </mxGeometry>
        </mxCell>
        <mxCell id="PALh2jBZQSpQOgBiLoI5-60" style="edgeStyle=orthogonalEdgeStyle;rounded=0;orthogonalLoop=1;jettySize=auto;html=1;exitX=0.5;exitY=1;exitDx=0;exitDy=0;entryX=0.5;entryY=0;entryDx=0;entryDy=0;" edge="1" parent="1" source="PALh2jBZQSpQOgBiLoI5-62" target="PALh2jBZQSpQOgBiLoI5-66">
          <mxGeometry relative="1" as="geometry" />
        </mxCell>
        <mxCell id="PALh2jBZQSpQOgBiLoI5-61" style="edgeStyle=orthogonalEdgeStyle;rounded=0;orthogonalLoop=1;jettySize=auto;html=1;exitX=1;exitY=0.5;exitDx=0;exitDy=0;entryX=1;entryY=0.5;entryDx=0;entryDy=0;" edge="1" parent="1" source="PALh2jBZQSpQOgBiLoI5-62" target="PALh2jBZQSpQOgBiLoI5-65">
          <mxGeometry relative="1" as="geometry" />
        </mxCell>
        <mxCell id="PALh2jBZQSpQOgBiLoI5-74" style="edgeStyle=orthogonalEdgeStyle;rounded=0;orthogonalLoop=1;jettySize=auto;html=1;exitX=0.75;exitY=0;exitDx=0;exitDy=0;entryX=0.5;entryY=1;entryDx=0;entryDy=0;" edge="1" parent="1" source="PALh2jBZQSpQOgBiLoI5-62" target="PALh2jBZQSpQOgBiLoI5-71">
          <mxGeometry relative="1" as="geometry" />
        </mxCell>
        <mxCell id="PALh2jBZQSpQOgBiLoI5-62" value="pymongo-api" style="rounded=1;whiteSpace=wrap;html=1;" vertex="1" parent="1">
          <mxGeometry x="106" y="274" width="120" height="60" as="geometry" />
        </mxCell>
        <mxCell id="PALh2jBZQSpQOgBiLoI5-63" style="edgeStyle=orthogonalEdgeStyle;rounded=0;orthogonalLoop=1;jettySize=auto;html=1;exitX=0.5;exitY=0;exitDx=0;exitDy=0;entryX=0.5;entryY=1;entryDx=0;entryDy=0;" edge="1" parent="1" source="PALh2jBZQSpQOgBiLoI5-65" target="PALh2jBZQSpQOgBiLoI5-66">
          <mxGeometry relative="1" as="geometry" />
        </mxCell>
        <mxCell id="PALh2jBZQSpQOgBiLoI5-64" style="edgeStyle=orthogonalEdgeStyle;rounded=0;orthogonalLoop=1;jettySize=auto;html=1;entryX=0;entryY=0.5;entryDx=0;entryDy=0;" edge="1" parent="1" source="PALh2jBZQSpQOgBiLoI5-65" target="PALh2jBZQSpQOgBiLoI5-62">
          <mxGeometry relative="1" as="geometry">
            <Array as="points">
              <mxPoint x="86" y="496" />
              <mxPoint x="86" y="304" />
            </Array>
          </mxGeometry>
        </mxCell>
        <mxCell id="PALh2jBZQSpQOgBiLoI5-67" style="edgeStyle=orthogonalEdgeStyle;rounded=0;orthogonalLoop=1;jettySize=auto;html=1;entryX=0;entryY=0.5;entryDx=0;entryDy=0;" edge="1" parent="1" source="PALh2jBZQSpQOgBiLoI5-65" target="PALh2jBZQSpQOgBiLoI5-7">
          <mxGeometry relative="1" as="geometry">
            <Array as="points">
              <mxPoint x="166" y="568" />
              <mxPoint x="496" y="568" />
              <mxPoint x="496" y="500" />
            </Array>
          </mxGeometry>
        </mxCell>
        <mxCell id="PALh2jBZQSpQOgBiLoI5-68" style="edgeStyle=orthogonalEdgeStyle;rounded=0;orthogonalLoop=1;jettySize=auto;html=1;entryX=0;entryY=0.5;entryDx=0;entryDy=0;" edge="1" parent="1" source="PALh2jBZQSpQOgBiLoI5-65" target="PALh2jBZQSpQOgBiLoI5-52">
          <mxGeometry relative="1" as="geometry">
            <Array as="points">
              <mxPoint x="166" y="568" />
              <mxPoint x="496" y="568" />
              <mxPoint x="496" y="618" />
            </Array>
          </mxGeometry>
        </mxCell>
        <mxCell id="PALh2jBZQSpQOgBiLoI5-65" value="&lt;div&gt;Driver&lt;/div&gt;" style="rounded=1;whiteSpace=wrap;html=1;" vertex="1" parent="1">
          <mxGeometry x="106" y="466" width="120" height="60" as="geometry" />
        </mxCell>
        <mxCell id="PALh2jBZQSpQOgBiLoI5-66" value="Redis" style="rounded=1;whiteSpace=wrap;html=1;" vertex="1" parent="1">
          <mxGeometry x="106" y="374" width="120" height="60" as="geometry" />
        </mxCell>
        <mxCell id="PALh2jBZQSpQOgBiLoI5-72" style="edgeStyle=orthogonalEdgeStyle;rounded=0;orthogonalLoop=1;jettySize=auto;html=1;entryX=0.5;entryY=0;entryDx=0;entryDy=0;" edge="1" parent="1" source="PALh2jBZQSpQOgBiLoI5-69" target="PALh2jBZQSpQOgBiLoI5-62">
          <mxGeometry relative="1" as="geometry">
            <Array as="points">
              <mxPoint x="146" y="258" />
              <mxPoint x="166" y="258" />
            </Array>
          </mxGeometry>
        </mxCell>
        <mxCell id="PALh2jBZQSpQOgBiLoI5-73" style="edgeStyle=orthogonalEdgeStyle;rounded=0;orthogonalLoop=1;jettySize=auto;html=1;entryX=0.5;entryY=0;entryDx=0;entryDy=0;" edge="1" parent="1" source="PALh2jBZQSpQOgBiLoI5-69" target="zA23MoTUsTF4_91t8viU-3">
          <mxGeometry relative="1" as="geometry">
            <Array as="points">
              <mxPoint x="146" y="258" />
              <mxPoint x="356" y="258" />
            </Array>
          </mxGeometry>
        </mxCell>
        <mxCell id="PALh2jBZQSpQOgBiLoI5-69" value="APISIX Gateway" style="rounded=1;whiteSpace=wrap;html=1;" vertex="1" parent="1">
          <mxGeometry x="86" y="138" width="120" height="60" as="geometry" />
        </mxCell>
        <mxCell id="PALh2jBZQSpQOgBiLoI5-76" style="edgeStyle=orthogonalEdgeStyle;rounded=0;orthogonalLoop=1;jettySize=auto;html=1;entryX=0;entryY=0.5;entryDx=0;entryDy=0;" edge="1" parent="1" source="PALh2jBZQSpQOgBiLoI5-70" target="PALh2jBZQSpQOgBiLoI5-71">
          <mxGeometry relative="1" as="geometry" />
        </mxCell>
        <mxCell id="PALh2jBZQSpQOgBiLoI5-70" value="consul_kv" style="rounded=1;whiteSpace=wrap;html=1;" vertex="1" parent="1">
          <mxGeometry x="196" y="148" width="90" height="40" as="geometry" />
        </mxCell>
        <mxCell id="PALh2jBZQSpQOgBiLoI5-71" value="Consul" style="rounded=1;whiteSpace=wrap;html=1;" vertex="1" parent="1">
          <mxGeometry x="316" y="138" width="120" height="60" as="geometry" />
        </mxCell>
        <mxCell id="PALh2jBZQSpQOgBiLoI5-78" style="edgeStyle=orthogonalEdgeStyle;rounded=0;orthogonalLoop=1;jettySize=auto;html=1;entryX=0.5;entryY=0;entryDx=0;entryDy=0;" edge="1" parent="1" source="PALh2jBZQSpQOgBiLoI5-77" target="PALh2jBZQSpQOgBiLoI5-69">
          <mxGeometry relative="1" as="geometry">
            <Array as="points">
              <mxPoint x="146" y="70" />
            </Array>
          </mxGeometry>
        </mxCell>
        <mxCell id="PALh2jBZQSpQOgBiLoI5-77" value="Frontend" style="rounded=1;whiteSpace=wrap;html=1;" vertex="1" parent="1">
          <mxGeometry x="196" y="40" width="120" height="60" as="geometry" />
        </mxCell>
      </root>
    </mxGraphModel>
  </diagram>
</mxfile>
